<svg width="400" height="400" viewBox="0 0 400 400" fill="none" xmlns="http://www.w3.org/2000/svg">
<g clip-path="url(#clip0_14_108)">
<path fill-rule="evenodd" clip-rule="evenodd" d="M175.386 142.7L130.449 142.883L130.439 192.089L175.448 191.977L175.876 238.813L224.11 238.132L224.707 192.018L302.062 192.009C301.082 217.838 268.9 248.638 257.114 260.348L200.111 316.58L124.867 241.856C64.487 179.276 99.0678 76.7867 185.692 63.4869C231.505 56.4525 271.554 83.6287 287.011 108.788L342.746 108.868C338.104 86.4733 310.347 56.3179 291.716 42.823C269.542 26.7615 240.745 14.2276 206.256 13.0968C62.838 8.39407 -3.74235 176.861 85.2725 272.295C111.252 300.148 143.603 331.303 171.351 359.061C178.703 366.415 192.713 382.071 200.111 387C207.165 382.306 218.986 369.055 225.842 362.158L300.018 287.974C333.435 254.618 361.35 215.018 353.737 142.96L224.826 142.738L224.93 97.2924L175.572 97.2517L175.386 142.7L175.386 142.7Z" fill="#D03438"/>
</g>
<defs>
<clipPath id="clip0_14_108">
<rect width="310" height="374" fill="white" transform="translate(45 13)"/>
</clipPath>
</defs>
</svg>
